<?xml version="1.0" encoding="UTF-8"?>
<svg width="680" height="855" xmlns="http://www.w3.org/2000/svg" xmlns:svg="http://www.w3.org/2000/svg" xmlns:xlink="http://www.w3.org/1999/xlink">
 <title>white_notepad</title>

 <metadata id="metadata5500">image/svg+xml</metadata>
 <g>
  <title>Layer 1</title>
  <g id="layer1">
   <path fill="#ffffff" stroke="#030000" stroke-width="3" stroke-miterlimit="4" d="m49.2234,5.77225l0,41.55491l0,744.825367l0,41.554688l41.55521,0l465.825699,0l77.209961,0c23.014648,0 41.469543,-18.539978 41.469543,-41.554688l0,-744.825367c0,-23.01474 -18.454895,-41.55491 -41.469543,-41.55491l-77.209961,0l-465.825699,0l-41.55521,0z" id="path8098"/>
   <path fill="#ffffff" stroke="#030000" stroke-miterlimit="4" id="path6790" d="m46.990101,10.2225l0,41.554901l0,744.825382l0,41.554749l41.555218,0l465.825714,0l77.209961,0c23.014648,0 41.469543,-18.540039 41.469543,-41.554749l0,-744.825382c0,-23.014742 -18.454895,-41.554901 -41.469543,-41.554901l-77.209961,0l-465.825714,0l-41.555218,0z"/>
   <path fill="#ffffff" stroke="#030000" stroke-miterlimit="4" d="m44.693901,12.23164l0,41.554901l0,744.825459l0,41.554688l41.555222,0l465.825706,0l77.209961,0c23.014648,0 41.469543,-18.539978 41.469543,-41.554688l0,-744.825459c0,-23.014742 -18.454895,-41.554901 -41.469543,-41.554901l-77.209961,0l-465.825706,0l-41.555222,0z" id="path6792"/>
   <path fill="#ffffff" stroke="#030000" stroke-miterlimit="4" id="path6794" d="m42.39769,14.24088l0,41.5549l0,744.825314l0,41.554749l41.555222,0l465.825653,0l77.210022,0c23.014648,0 41.469543,-18.540039 41.469543,-41.554749l0,-744.825314c0,-23.01474 -18.454895,-41.5549 -41.469543,-41.5549l-77.210022,0l-465.825653,0l-41.555222,0z"/>
   <path fill="#ffffff" stroke="#030000" stroke-miterlimit="4" d="m40.10149,16.250019l0,41.554901l0,744.82539l0,41.554688l41.555218,0l465.825714,0l77.209961,0c23.014648,0 41.469543,-18.539978 41.469543,-41.554688l0,-744.82539c0,-23.01474 -18.454895,-41.554901 -41.469543,-41.554901l-77.209961,0l-465.825714,0l-41.555218,0z" id="path6796"/>
   <path fill="#ffffff" stroke="#030000" stroke-width="3" stroke-linejoin="round" stroke-miterlimit="4" id="rect8093" d="m34.386761,20.60895l0,41.55493l0,744.8255l0,41.554749l41.555202,0l465.825737,0l77.2099,0c23.014709,0 41.469604,-18.540039 41.469604,-41.554749l0,-744.8255c0,-23.01474 -18.454895,-41.55493 -41.469604,-41.55493l-77.2099,0l-465.825737,0l-41.555202,0z"/>
   <g id="g6838">
    <path fill="#ffffff" stroke="#000000" stroke-width="5.48354" stroke-linecap="round" stroke-miterlimit="4" d="m32.2304,58.579861c-16.17911,0 -29.28707,7.10413 -29.28707,15.864841c0,8.760681 13.10796,15.864807 29.28707,15.864807c14.178261,0 26.013809,-5.453156 28.723068,-12.698326l-6.025238,0c-2.602001,5.47567 -11.776909,9.53186 -22.69783,9.53186c-12.943291,0 -23.42689,-5.689796 -23.42689,-12.698341c0,-7.008575 10.4836,-12.682133 23.42689,-12.682133c0.09293,0 0.182411,-0.000519 0.275131,0l0,-3.182709c-0.092503,-0.00045 -0.182362,0 -0.275131,0z" id="path5919"/>
    <use fill="#ffffff" x="0" y="25.137501" xlink:href="#path5919" id="use6435" width="744.09448" height="1052.3622"/>
    <use fill="#ffffff" x="0" y="50.275002" xlink:href="#path5919" id="use6437" width="744.09448" height="1052.3622"/>
    <use fill="#ffffff" x="0" y="75.412598" xlink:href="#path5919" id="use6439" width="744.09448" height="1052.3622"/>
    <use fill="#ffffff" x="0" y="100.549988" xlink:href="#path5919" id="use6441" width="744.09448" height="1052.3622"/>
    <use fill="#ffffff" x="0" y="125.687988" xlink:href="#path5919" id="use6443" width="744.09448" height="1052.3622"/>
    <use fill="#ffffff" x="0" y="150.825012" xlink:href="#path5919" id="use6445" width="744.09448" height="1052.3622"/>
    <use fill="#ffffff" x="0" y="175.963013" xlink:href="#path5919" id="use6447" width="744.09448" height="1052.3622"/>
    <use fill="#ffffff" x="0" y="201.100006" xlink:href="#path5919" id="use6449" width="744.09448" height="1052.3622"/>
    <use fill="#ffffff" x="0" y="226.238007" xlink:href="#path5919" id="use6451" width="744.09448" height="1052.3622"/>
    <use fill="#ffffff" x="0" y="251.375" xlink:href="#path5919" id="use6453" width="744.09448" height="1052.3622"/>
    <use fill="#ffffff" x="0" y="276.513" xlink:href="#path5919" id="use6455" width="744.09448" height="1052.3622"/>
    <use fill="#ffffff" x="0" y="301.649994" xlink:href="#path5919" id="use6457" width="744.09448" height="1052.3622"/>
    <use fill="#ffffff" x="0" y="326.788025" xlink:href="#path5919" id="use6459" width="744.09448" height="1052.3622"/>
    <use fill="#ffffff" x="0" y="351.925964" xlink:href="#path5919" id="use6461" width="744.09448" height="1052.3622"/>
    <use fill="#ffffff" x="0" y="377.062988" xlink:href="#path5919" id="use6463" width="744.09448" height="1052.3622"/>
    <use fill="#ffffff" x="0" y="402.200989" xlink:href="#path5919" id="use6465" width="744.09448" height="1052.3622"/>
    <use fill="#ffffff" x="0" y="427.338013" xlink:href="#path5919" id="use6467" width="744.09448" height="1052.3622"/>
    <use fill="#ffffff" x="0" y="452.476013" xlink:href="#path5919" id="use6469" width="744.09448" height="1052.3622"/>
    <use fill="#ffffff" x="0" y="477.612976" xlink:href="#path5919" id="use6471" width="744.09448" height="1052.3622"/>
    <use fill="#ffffff" x="0" y="502.751038" xlink:href="#path5919" id="use6473" width="744.09448" height="1052.3622"/>
    <use fill="#ffffff" x="0" y="527.888" xlink:href="#path5919" id="use6475" width="744.09448" height="1052.3622"/>
    <use fill="#ffffff" x="0" y="553.026001" xlink:href="#path5919" id="use6477" width="744.09448" height="1052.3622"/>
    <use fill="#ffffff" x="0" y="578.163025" xlink:href="#path5919" id="use6479" width="744.09448" height="1052.3622"/>
    <use fill="#ffffff" x="0" y="628.439026" xlink:href="#path5919" id="use6481" width="744.09448" height="1052.3622"/>
    <use fill="#ffffff" x="0" y="653.575989" xlink:href="#path5919" id="use6483" width="744.09448" height="1052.3622"/>
    <use fill="#ffffff" x="0" y="603.301025" xlink:href="#path5919" id="use6485" width="744.09448" height="1052.3622"/>
    <use fill="#ffffff" x="0" y="678.713989" xlink:href="#path5919" id="use6487" width="744.09448" height="1052.3622"/>
    <use fill="#ffffff" x="0" y="703.851013" xlink:href="#path5919" id="use6489" width="744.09448" height="1052.3622"/>
    <use fill="#ffffff" x="0" y="728.989014" xlink:href="#path5919" id="use6491" width="744.09448" height="1052.3622"/>
    <use fill="#ffffff" x="0" y="754.125977" xlink:href="#path5919" id="use6493" width="744.09448" height="1052.3622"/>
    <path fill="#ffffff" stroke="#000000" stroke-width="5.48354" stroke-linecap="round" stroke-miterlimit="4" id="path6559" d="m32.2304,33.442341c-16.17911,0 -29.28707,7.104118 -29.28707,15.86483c0,8.760689 13.10796,15.864826 29.28707,15.864826c14.178261,0 26.013809,-5.453186 28.723068,-12.698345l-6.025238,0c-2.602001,5.475689 -11.776909,9.531868 -22.69783,9.531868c-12.943291,0 -23.42689,-5.6898 -23.42689,-12.698349c0,-7.008572 10.4836,-12.68211 23.42689,-12.68211c0.09293,0 0.182411,-0.000523 0.275131,0l0,-3.18272c-0.092503,-0.000481 -0.182362,0 -0.275131,0z"/>
    <path fill="#ffffff" stroke="#000000" stroke-width="5.48354" stroke-linecap="round" stroke-miterlimit="4" d="m40.258301,15.44099c2.695499,-1.41899 -5.822399,-8.806991 -15.825001,-7.36499c-10.0026,1.44201 -21.48997,11.712999 -21.48997,16.094c0,8.760012 13.10797,15.864 29.28707,15.864c14.178299,0 26.013802,-5.453011 28.723099,-12.698l-6.025299,0c-2.602001,5.476 -11.776901,9.532 -22.6978,9.532c-12.9433,0 -23.42689,-5.69001 -23.42689,-12.698c0,-3.505011 10.952889,-12.27001 17.198689,-12.78099c6.245802,-0.510011 7.784502,7.233989 14.256102,7.233989c0.046497,0 0.092098,0 0.137699,0c0.045601,0 0.091202,0 0.137501,0l0,-1.591l0,-1.591c0.0755,0.324 -0.0144,0.335 -0.111801,0.259c-0.0979,-0.07601 -0.204399,-0.237989 -0.1633,-0.259l-0.000099,0l0,-0.00001z" id="path6561"/>
   </g>
  </g>
 </g>
</svg>