<svg preserveAspectRatio="xMidYMid meet" data-bbox="34 34.096 132 131.904" xmlns="http://www.w3.org/2000/svg" width="200" height="200" viewBox="5.299692307692311 33.25046153846154 189.40061538461538 133.5950769230769" role="img">
    <g>
        <path d="M165.4 91.4c-3.2-24.7-19.8-45.2-43.3-53.6-.5-.2-1.1.1-1.3.6-.2.5.1 1.1.6 1.3 22.7 8.1 38.8 28 42 51.9.4 2.8.6 5.6.6 8.4 0 31.9-23.9 59.2-55.6 63.4-2.8.4-5.6.6-8.4.6-31.9 0-59.2-23.9-63.4-55.6-.4-2.8-.6-5.6-.6-8.4 0-32 23.9-59.3 55.6-63.4 8.4-1.1 17-.5 25.1 1.7.5.1 1.1-.2 1.2-.7.1-.5-.2-1.1-.7-1.2-8.4-2.3-17.2-2.9-25.9-1.7C58.7 38.9 34 67 34 99.9c0 2.9.2 5.8.6 8.7C38.9 141.3 67 166 99.9 166c2.9 0 5.8-.2 8.7-.6 32.7-4.3 57.4-32.4 57.4-65.3 0-2.9-.2-5.8-.6-8.7z"></path>
        <path d="M151.1 122c.1.1.3.1.4.1.4 0 .8-.2.9-.6 2.8-6.8 4.2-14 4.2-21.4 0-3-.2-6-.7-8.9-3.8-24.2-22.6-43.1-46.8-47-.6-.1-1.1.3-1.1.8-.1.5.3 1.1.8 1.1 23.3 3.8 41.5 22 45.2 45.3.5 2.9.7 5.7.7 8.6 0 2.3-.2 4.6-.4 6.8-2.4-2.2-5.2-3.8-8.3-4.7 0-.1.1-.2.1-.3 0-5.9-4.8-10.7-10.7-10.7-5.2 0-9.8 3.9-10.6 9.1 0 .3.1.6.3.8.1.1.2.3.4.3 1.4.8 2.6 2 3.2 3.4.2.4.5.6.9.6.1 0 .3 0 .4-.1.5-.2.7-.8.5-1.3-.8-1.7-2-3.1-3.6-4.1.9-3.9 4.4-6.8 8.5-6.8 4.8 0 8.6 3.8 8.7 8.6-.6-.1-1.1-.2-1.7-.3-.8-.1-1.7-.1-2.5-.1-.6 0-1 .4-1 1s.4 1 1 1c.8 0 1.5 0 2.3.1 4.5.5 8.6 2.6 11.8 5.9-.7 3.9-1.8 7.7-3.3 11.4-.4.6-.2 1.2.4 1.4z"></path>
        <path d="M104 43.6c-4.3-.3-8.6-.1-12.9.6C63.5 48.5 43.4 72 43.4 99.9c0 3 .2 6 .7 8.9 1.8 11.7 7.2 22.3 15.4 30.7.2.2.5.3.7.3.3 0 .5-.1.7-.3.4-.4.4-1 0-1.4-2.2-2.3-4.2-4.7-6-7.3 10-15.2 26.8-24.2 45-24.2 6.9 0 13.6 1.3 19.9 3.8.5.2 1.1 0 1.3-.6.2-.5 0-1.1-.6-1.3-6.2-2.5-12.7-3.8-19.5-3.9-.1-.4-.1-.7-.1-1.1 0-4.1 3.3-7.4 7.4-7.4 3.3 0 6.3 2.2 7.2 5.4.1.3.3.6.6.7.3.1.7.1.9-.1l.3-.2c1.3-.9 2.7-1.4 4.3-1.4h.1c.5 0 1-.4 1-1 0-.5-.3-.9-.8-1 0-.1.1-.2.1-.3V86l2.9 1.2c.1.1.3.1.4.1.4 0 .8-.2.9-.6.2-.5 0-1.1-.5-1.3l-4.3-1.8-23.3-10c-.5-.2-1.1 0-1.3.5-.2.5 0 1.1.5 1.3l22.7 9.8v13.2c0 .1 0 .2.1.3-1.1.2-2.2.5-3.2 1.1-1.5-3.4-4.9-5.6-8.6-5.6-5.2 0-9.4 4.2-9.4 9.4 0 .4 0 .7.1 1.1-1.9 0-3.8.1-5.6.4V91.9c0-.6-.4-1-1-1s-1 .4-1 1v13.4c-2.1.3-4.1.7-6.1 1.3l-.1-16.1 6.2-3.6v.9c0 .6.4 1 1 1s1-.4 1-1v-2.7c0-.4-.2-.7-.5-.9-.3-.2-.7-.2-1 0l-8.2 4.7c-.3.2-.5.5-.5.9l.1 17.2c-1.6.5-3.1 1.1-4.7 1.7V86.4L94.8 77c.5-.3.6-.9.4-1.4-.3-.5-.9-.6-1.4-.4l-20.6 12c-.5.3-.6.9-.4 1.4.2.3.5.5.9.5.2 0 .3 0 .5-.1l2.4-1.4V98c-1.3-.2-2.6-.3-3.8-.3-6 0-11.8 1.9-16.7 5.4-1.1.8-2.2 1.7-3.3 2.7l-.5.6c-.1.1-.2.2-.2.3-2.1.3-4.1.9-6.1 1.6-.4-2.8-.7-5.6-.7-8.4 0-27 19.4-49.6 46-53.8 4.1-.7 8.3-.8 12.4-.5.6 0 1-.4 1.1-.9.2-.6-.2-1.1-.8-1.1zm-46.6 61.1c4.6-3.3 9.9-5 15.5-5 1.3 0 2.6.1 3.8.3v9.6c-9.1 4.2-17.1 10.8-22.9 19.4-3.6-5.7-6.1-12-7.4-18.7 4.4-1.8 9.3-2.4 14.1-1.7.5.1 1.1-.3 1.1-.8.1-.5-.3-1.1-.8-1.1-1.8-.3-3.7-.4-5.5-.3.6-.6 1.3-1.1 2.1-1.7z"></path>
        <path d="M99.9 156.6c3 0 6-.2 8.9-.7 17.6-2.8 33.1-13.9 41.4-29.8.3-.5.1-1.1-.4-1.3-.5-.3-1.1-.1-1.3.4-.7 1.3-1.5 2.6-2.3 3.9-5.5-8.1-13-14.6-21.8-18.8-.5-.2-1.1 0-1.3.5-.2.5 0 1.1.5 1.3 8.7 4.2 16.2 10.7 21.5 18.9-1.3 1.9-2.8 3.8-4.4 5.5-3.6-6-8.5-11.3-14.4-15.2-.5-.3-1.1-.2-1.4.3-.3.5-.2 1.1.3 1.4 5.8 3.9 10.6 9 14.1 15-1.6 1.6-3.3 3.2-5 4.6-1.4-2.6-3-5-4.9-7.2-.4-.4-1-.5-1.4-.1s-.5 1-.1 1.4c1.9 2.2 3.5 4.6 4.8 7.1-7 5.2-15.2 8.8-24 10.2-2.9.5-5.7.7-8.6.7-11.7 0-23.1-3.8-32.5-10.8 2.6-4.9 6.2-9.3 10.7-12.6.4-.3.5-1 .2-1.4s-1-.5-1.4-.2c-4.6 3.4-8.4 7.9-11.1 13-.4-.3-.8-.7-1.3-1-.4-.4-1.1-.3-1.4.1-.4.4-.3 1.1.1 1.4 10.1 8.6 23.1 13.4 36.5 13.4z"></path>
        <path d="M67.2 68.6c-2.6 2.7-4.8 5.7-6.6 8.9-.3.5-.1 1.1.4 1.4.2.1.3.1.5.1.3 0 .7-.2.9-.5 1.8-3.1 3.9-5.9 6.3-8.5.4-.4.4-1 0-1.4-.5-.4-1.1-.4-1.5 0z"></path>
        <path d="M111.7 58.2c.5.1 1.1-.2 1.2-.7.1-.5-.2-1.1-.7-1.2-4-1.1-8.1-1.7-12.2-1.7-5.8 0-11.6 1.1-17 3.3-1.2-1.6-3.2-2.6-5.3-2.6-.6 0-1.2.1-1.7.2-.7.2-1.4.5-2.1.9-.5.3-.6.9-.3 1.4.3.5.9.6 1.4.3.4-.3.9-.5 1.4-.7.4-.1.8-.2 1.2-.2 1.3 0 2.5.6 3.4 1.5-1.2.5-2.4 1.1-3.5 1.8-.5.3-.6.9-.4 1.4.2.3.5.5.9.5.2 0 .3 0 .5-.1 1.2-.7 2.3-1.2 3.5-1.8 0 .1.1.2.1.3.1.4.2.8.2 1.2 0 2.1-1.4 4-3.5 4.6-.4.1-.8.2-1.2.2-2.1 0-4-1.4-4.6-3.5V62c0-.4.1-.8.2-1.3s-.2-1.1-.7-1.2c-.5-.1-1.1.2-1.2.7-.2.6-.3 1.2-.3 1.8 0 .6.1 1.2.2 1.7.8 2.9 3.5 5 6.5 5 .6 0 1.2-.1 1.7-.2 2.9-.8 5-3.5 5-6.5 0-.6-.1-1.2-.2-1.7-.1-.2-.1-.4-.2-.6 5.1-2 10.5-3.1 16-3.1 4 0 7.9.5 11.7 1.6z"></path>
        <path d="M128.4 67.2c.2.2.4.2.7.2.3 0 .6-.1.8-.3.4-.4.3-1-.1-1.4-4.1-3.5-8.6-6.3-13.6-8.2-.5-.2-1.1.1-1.3.6s.1 1.1.6 1.3c4.7 1.8 9.1 4.5 12.9 7.8z"></path>
        <path d="M62.1 135c.3 0 .6-.1.8-.4 1.2-1.7 2.5-3.2 3.8-4.7.4-.4.4-1-.1-1.4-.4-.4-1-.4-1.4.1-1.4 1.6-2.8 3.2-4 4.9-.3.5-.2 1.1.2 1.4.3 0 .5.1.7.1z"></path>
        <path d="M122.7 119.1c-6.9-3.8-14.8-5.8-22.7-5.8-2.3 0-4.6.2-6.9.5-.5.1-.9.6-.8 1.1.1.5.6.9 1.1.8 2.2-.3 4.4-.5 6.6-.5 7.6 0 15.1 1.9 21.8 5.6.2.1.3.1.5.1.4 0 .7-.2.9-.5.2-.4 0-1-.5-1.3z"></path>
        <path d="M82.9 118.6c.5-.2.8-.8.5-1.3-.2-.5-.8-.8-1.3-.5-.4.2-.8.3-1.2.5-1.5.7-3.1 1.5-4.5 2.3-.9.5-1.9 1.1-2.8 1.7-.5.3-.6.9-.3 1.4.2.3.5.4.8.4.2 0 .4-.1.6-.2.9-.6 1.8-1.2 2.7-1.7 1.4-.8 2.9-1.6 4.4-2.2.3 0 .7-.2 1.1-.4z"></path>
        <path d="M112.5 125c.2-.5-.1-1.1-.6-1.3-3.8-1.2-7.8-1.9-11.9-1.9-6.3 0-12.5 1.5-18 4.4-.5.3-.7.9-.4 1.4.2.3.5.5.9.5.2 0 .3 0 .5-.1 5.2-2.7 11.1-4.2 17-4.2 3.9 0 7.7.6 11.3 1.8.5.2 1.1 0 1.2-.6z"></path>
        <path d="M125.5 132.8c.4-.4.3-1-.1-1.4-2.9-2.5-6.1-4.6-9.6-6.2-.5-.2-1.1 0-1.3.5-.2.5 0 1.1.5 1.3 3.3 1.5 6.4 3.4 9.1 5.8.2.2.4.2.7.2.2.2.5 0 .7-.2z"></path>
        <path d="M108.9 134c.1 0 .2.1.3.1.4 0 .8-.3.9-.7.2-.5-.1-1.1-.6-1.3-1.2-.4-2.5-.8-3.8-1-.5-.1-1.1.2-1.2.8-.1.5.2 1.1.8 1.2 1.2.2 2.4.5 3.6.9z"></path>
        <path d="M101.5 132.6c.5.1 1-.4 1.1-.9s-.4-1-.9-1.1h-1.6c-9 0-17.5 4-23.2 11-.6.7-1.2 1.5-1.7 2.3-.3.5-.2 1.1.3 1.4.2.1.4.2.6.2.3 0 .6-.2.8-.4.5-.7 1-1.4 1.6-2.1 5.4-6.5 13.3-10.3 21.7-10.3.3-.2.8-.2 1.3-.1z"></path>
        <path d="M122.3 143.6c.2.3.5.4.8.4.2 0 .4-.1.6-.2.4-.3.5-1 .2-1.4-2.3-3-5.1-5.6-8.4-7.5-.5-.3-1.1-.1-1.4.3-.3.5-.1 1.1.3 1.4 3.1 1.8 5.7 4.1 7.9 7z"></path>
        <path d="M84 149c.3 0 .6-.1.8-.4 3.7-4.7 9.3-7.4 15.3-7.4 3.7 0 7.3 1 10.4 3 .5.3 1.1.2 1.4-.3.3-.5.2-1.1-.3-1.4-3.4-2.2-7.4-3.3-11.5-3.3-6.6 0-12.7 3-16.8 8.2-.3.4-.3 1.1.2 1.4 0 .1.2.2.5.2z"></path>
        <path d="M113.4 145.1c-.4.4-.4 1 0 1.4.7.7 1.4 1.5 2.1 2.3.2.3.5.4.8.4.2 0 .4-.1.6-.2.4-.3.5-1 .2-1.4-.7-.9-1.5-1.8-2.3-2.5-.4-.4-1.1-.4-1.4 0z"></path>
        <path d="M86.7 115.9c0-.6.5-1.2 1.2-1.2.6 0 1.2.5 1.2 1.2 0 .6-.5 1.2-1.2 1.2s-1.2-.5-1.2-1.2z"></path>
        <path d="M71.1 125.4c0 .6-.5 1.2-1.2 1.2-.6 0-1.2-.5-1.2-1.2 0-.6.5-1.2 1.2-1.2.7.1 1.2.6 1.2 1.2z"></path>
    </g>
</svg>