<svg width="680" height="855" xmlns="http://www.w3.org/2000/svg" xmlns:xlink="http://www.w3.org/1999/xlink">
 <title>white_notepad</title>

 <metadata id="metadata5500">image/svg+xml</metadata>
 <g>
  <title>background</title>
  <rect fill="none" id="canvas_background" height="402" width="582" y="-1" x="-1"/>
 </g>
 <g>
  <title>Layer 1</title>
  <g id="layer1">
   <path id="path8098" d="m49.2234,5.77225l0,41.55491l0,744.82537l0,41.55469l41.55521,0l465.8257,0l77.20996,0c23.01465,0 41.46954,-18.53998 41.46954,-41.55469l0,-744.82537c0,-23.01474 -18.45489,-41.55491 -41.46954,-41.55491l-77.20996,0l-465.8257,0l-41.55521,0z" stroke-miterlimit="4" stroke-width="3" stroke="#030000" fill="#ffe47a"/>
   <path d="m46.9901,10.2225l0,41.5549l0,744.82538l0,41.55475l41.55522,0l465.82571,0l77.20996,0c23.01465,0 41.46955,-18.54004 41.46955,-41.55475l0,-744.82538c0,-23.01474 -18.4549,-41.5549 -41.46955,-41.5549l-77.20996,0l-465.82571,0l-41.55522,0z" id="path6790" stroke-miterlimit="4" stroke="#030000" fill="#ffe47a"/>
   <path id="path6792" d="m44.6939,12.23164l0,41.5549l0,744.82546l0,41.55469l41.55522,0l465.82571,0l77.20996,0c23.01465,0 41.46954,-18.53998 41.46954,-41.55469l0,-744.82546c0,-23.01474 -18.45489,-41.5549 -41.46954,-41.5549l-77.20996,0l-465.82571,0l-41.55522,0z" stroke-miterlimit="4" stroke="#030000" fill="#ffe47a"/>
   <path d="m42.39769,14.24088l0,41.5549l0,744.82531l0,41.55475l41.55522,0l465.82565,0l77.21003,0c23.01464,0 41.46954,-18.54004 41.46954,-41.55475l0,-744.82531c0,-23.01474 -18.45489,-41.5549 -41.46954,-41.5549l-77.21003,0l-465.82565,0l-41.55522,0z" id="path6794" stroke-miterlimit="4" stroke="#030000" fill="#ffe47a"/>
   <path id="path6796" d="m40.10149,16.25002l0,41.5549l0,744.82539l0,41.55469l41.55522,0l465.82571,0l77.20996,0c23.01465,0 41.46955,-18.53998 41.46955,-41.55469l0,-744.82539c0,-23.01474 -18.4549,-41.5549 -41.46955,-41.5549l-77.20996,0l-465.82571,0l-41.55522,0z" stroke-miterlimit="4" stroke="#030000" fill="#ffe47a"/>
   <path d="m34.38676,20.60895l0,41.55493l0,744.8255l0,41.55475l41.5552,0l465.82574,0l77.2099,0c23.01471,0 41.4696,-18.54004 41.4696,-41.55475l0,-744.8255c0,-23.01474 -18.45489,-41.55493 -41.4696,-41.55493l-77.2099,0l-465.82574,0l-41.5552,0z" id="rect8093" stroke-miterlimit="4" stroke-linejoin="round" stroke-width="3" stroke="#030000" fill="#ffe47a"/>
   <g id="g6838">
    <path id="path5919" d="m32.2304,58.57986c-16.17911,0 -29.28707,7.10413 -29.28707,15.86484c0,8.76068 13.10796,15.86481 29.28707,15.86481c14.17826,0 26.01381,-5.45316 28.72307,-12.69833l-6.02524,0c-2.602,5.47567 -11.77691,9.53186 -22.69783,9.53186c-12.94329,0 -23.42689,-5.68979 -23.42689,-12.69834c0,-7.00857 10.4836,-12.68213 23.42689,-12.68213c0.09293,0 0.18241,-0.00052 0.27513,0l0,-3.18271c-0.0925,-0.00045 -0.18236,0 -0.27513,0z" stroke-miterlimit="4" stroke-linecap="round" stroke-width="5.48354" stroke="#000000" fill="#ffe47a"/>
    <use height="1052.3622" width="744.09448" id="use6435" xlink:href="#path5919" y="25.137501" x="0" fill="#ffe47a"/>
    <use height="1052.3622" width="744.09448" id="use6437" xlink:href="#path5919" y="50.275002" x="0" fill="#ffe47a"/>
    <use height="1052.3622" width="744.09448" id="use6439" xlink:href="#path5919" y="75.412598" x="0" fill="#ffe47a"/>
    <use height="1052.3622" width="744.09448" id="use6441" xlink:href="#path5919" y="100.549988" x="0" fill="#ffe47a"/>
    <use height="1052.3622" width="744.09448" id="use6443" xlink:href="#path5919" y="125.687988" x="0" fill="#ffe47a"/>
    <use height="1052.3622" width="744.09448" id="use6445" xlink:href="#path5919" y="150.825012" x="0" fill="#ffe47a"/>
    <use height="1052.3622" width="744.09448" id="use6447" xlink:href="#path5919" y="175.963013" x="0" fill="#ffe47a"/>
    <use height="1052.3622" width="744.09448" id="use6449" xlink:href="#path5919" y="201.100006" x="0" fill="#ffe47a"/>
    <use height="1052.3622" width="744.09448" id="use6451" xlink:href="#path5919" y="226.238007" x="0" fill="#ffe47a"/>
    <use height="1052.3622" width="744.09448" id="use6453" xlink:href="#path5919" y="251.375" x="0" fill="#ffe47a"/>
    <use height="1052.3622" width="744.09448" id="use6455" xlink:href="#path5919" y="276.513" x="0" fill="#ffe47a"/>
    <use height="1052.3622" width="744.09448" id="use6457" xlink:href="#path5919" y="301.649994" x="0" fill="#ffe47a"/>
    <use height="1052.3622" width="744.09448" id="use6459" xlink:href="#path5919" y="326.788025" x="0" fill="#ffe47a"/>
    <use height="1052.3622" width="744.09448" id="use6461" xlink:href="#path5919" y="351.925964" x="0" fill="#ffe47a"/>
    <use height="1052.3622" width="744.09448" id="use6463" xlink:href="#path5919" y="377.062988" x="0" fill="#ffe47a"/>
    <use height="1052.3622" width="744.09448" id="use6465" xlink:href="#path5919" y="402.200989" x="0" fill="#ffe47a"/>
    <use height="1052.3622" width="744.09448" id="use6467" xlink:href="#path5919" y="427.338013" x="0" fill="#ffe47a"/>
    <use height="1052.3622" width="744.09448" id="use6469" xlink:href="#path5919" y="452.476013" x="0" fill="#ffe47a"/>
    <use height="1052.3622" width="744.09448" id="use6471" xlink:href="#path5919" y="477.612976" x="0" fill="#ffe47a"/>
    <use height="1052.3622" width="744.09448" id="use6473" xlink:href="#path5919" y="502.751038" x="0" fill="#ffe47a"/>
    <use height="1052.3622" width="744.09448" id="use6475" xlink:href="#path5919" y="527.888" x="0" fill="#ffe47a"/>
    <use height="1052.3622" width="744.09448" id="use6477" xlink:href="#path5919" y="553.026001" x="0" fill="#ffe47a"/>
    <use height="1052.3622" width="744.09448" id="use6479" xlink:href="#path5919" y="578.163025" x="0" fill="#ffe47a"/>
    <use height="1052.3622" width="744.09448" id="use6481" xlink:href="#path5919" y="628.439026" x="0" fill="#ffe47a"/>
    <use height="1052.3622" width="744.09448" id="use6483" xlink:href="#path5919" y="653.575989" x="0" fill="#ffe47a"/>
    <use height="1052.3622" width="744.09448" id="use6485" xlink:href="#path5919" y="603.301025" x="0" fill="#ffe47a"/>
    <use height="1052.3622" width="744.09448" id="use6487" xlink:href="#path5919" y="678.713989" x="0" fill="#ffe47a"/>
    <use height="1052.3622" width="744.09448" id="use6489" xlink:href="#path5919" y="703.851013" x="0" fill="#ffe47a"/>
    <use height="1052.3622" width="744.09448" id="use6491" xlink:href="#path5919" y="728.989014" x="0" fill="#ffe47a"/>
    <use height="1052.3622" width="744.09448" id="use6493" xlink:href="#path5919" y="754.125977" x="0" fill="#ffe47a"/>
    <path d="m32.2304,33.44234c-16.17911,0 -29.28707,7.10412 -29.28707,15.86483c0,8.76069 13.10796,15.86483 29.28707,15.86483c14.17826,0 26.01381,-5.45319 28.72307,-12.69835l-6.02524,0c-2.602,5.47569 -11.77691,9.53187 -22.69783,9.53187c-12.94329,0 -23.42689,-5.6898 -23.42689,-12.69835c0,-7.00857 10.4836,-12.68211 23.42689,-12.68211c0.09293,0 0.18241,-0.00052 0.27513,0l0,-3.18272c-0.0925,-0.00048 -0.18236,0 -0.27513,0z" id="path6559" stroke-miterlimit="4" stroke-linecap="round" stroke-width="5.48354" stroke="#000000" fill="#ffe47a"/>
    <path id="path6561" d="m40.2583,15.44099c2.6955,-1.41899 -5.8224,-8.80699 -15.825,-7.36499c-10.0026,1.44201 -21.48997,11.713 -21.48997,16.094c0,8.76001 13.10797,15.864 29.28707,15.864c14.1783,0 26.0138,-5.45301 28.7231,-12.698l-6.0253,0c-2.602,5.476 -11.7769,9.532 -22.6978,9.532c-12.9433,0 -23.42689,-5.69001 -23.42689,-12.698c0,-3.50501 10.95289,-12.27001 17.19869,-12.78099c6.2458,-0.51001 7.7845,7.23399 14.2561,7.23399c0.0465,0 0.0921,0 0.1377,0c0.0456,0 0.0912,0 0.1375,0l0,-1.591l0,-1.591c0.0755,0.324 -0.0144,0.335 -0.1118,0.259c-0.0979,-0.07601 -0.2044,-0.23799 -0.1633,-0.259l-0.0001,0l0,-0.00001z" stroke-miterlimit="4" stroke-linecap="round" stroke-width="5.48354" stroke="#000000" fill="#ffe47a"/>
   </g>
  </g>
 </g>
</svg>